<svg width="68" height="68" viewBox="0 0 68 68" fill="none" xmlns="http://www.w3.org/2000/svg">
<rect width="68" height="68" rx="34" fill="#FF0000" fill-opacity="0.08"/>
<path d="M39 22C38.9068 19.8132 38.6294 18.4197 37.805 17.3475C37.4852 16.9315 37.1122 16.5591 36.6952 16.2398C35.0762 15 32.726 15 28.0257 15H27.0236C21.3557 15 18.5217 15 16.7609 16.7573C15.0001 18.5147 15 21.3431 15 26.9999L15 41C15 46.6568 15 49.4852 16.7608 51.2426C18.5216 53 21.3556 53 27.0236 53H28.0256C32.726 53 35.0762 53 36.6952 51.7602C37.112 51.441 37.4852 51.0686 37.805 50.6526C38.6294 49.5802 38.9068 48.1866 39 45.9992" stroke="#FF0000" stroke-width="3" stroke-linecap="round" stroke-linejoin="round"/>
<path d="M51 33.9998H27M46 41C46 41 53 35.8446 53 34C53 32.1554 46 27 46 27" stroke="#FF0000" stroke-width="3" stroke-linecap="round" stroke-linejoin="round"/>
</svg>
